<svg xmlns="http://www.w3.org/2000/svg" viewBox="0 0 512 512">
  <defs>
    <linearGradient id="bg" x1="74" y1="54" x2="438" y2="462" gradientUnits="userSpaceOnUse">
      <stop offset="0" stop-color="#1f2937"/>
      <stop offset="0.5" stop-color="#111827"/>
      <stop offset="1" stop-color="#020617"/>
    </linearGradient>
    <linearGradient id="fur" x1="156" y1="122" x2="352" y2="387" gradientUnits="userSpaceOnUse">
      <stop offset="0" stop-color="#f3f4f6"/>
      <stop offset="0.42" stop-color="#cbd5e1"/>
      <stop offset="1" stop-color="#64748b"/>
    </linearGradient>
    <linearGradient id="steel" x1="84" y1="277" x2="428" y2="277" gradientUnits="userSpaceOnUse">
      <stop offset="0" stop-color="#94a3b8"/>
      <stop offset="0.18" stop-color="#f8fafc"/>
      <stop offset="0.5" stop-color="#cbd5e1"/>
      <stop offset="0.82" stop-color="#f8fafc"/>
      <stop offset="1" stop-color="#94a3b8"/>
    </linearGradient>
    <filter id="shadow" x="-15%" y="-15%" width="130%" height="135%" color-interpolation-filters="sRGB">
      <feDropShadow dx="0" dy="18" stdDeviation="16" flood-color="#000000" flood-opacity="0.45"/>
    </filter>
  </defs>
  <rect width="512" height="512" rx="120" fill="url(#bg)"/>
  <path d="M81 368c42 66 130 92 207 72 74-19 132-79 146-152 17-88-29-177-109-213-80-37-178-14-233 55-55 70-59 168-11 238Z" fill="#0f172a" opacity="0.85"/>
  <g filter="url(#shadow)">
    <path d="M109 250h294" stroke="#334155" stroke-width="42" stroke-linecap="round"/>
    <path d="M109 250h294" stroke="url(#steel)" stroke-width="24" stroke-linecap="round"/>
    <g fill="#d4ff00">
      <rect x="61" y="190" width="38" height="120" rx="16"/>
      <rect x="101" y="172" width="36" height="156" rx="16"/>
      <rect x="375" y="172" width="36" height="156" rx="16"/>
      <rect x="413" y="190" width="38" height="120" rx="16"/>
    </g>
    <path d="M154 213c-20-62 14-97 55-66 18-44 71-45 92 0 43-28 77 9 56 67 43 26 57 86 31 133-27 50-82 78-132 78s-105-28-132-78c-25-47-12-108 30-134Z" fill="url(#fur)"/>
    <path d="M172 151c7-39 34-54 66-34l-32 70c-27-5-39-16-34-36Z" fill="#111827"/>
    <path d="M340 151c-7-39-34-54-66-34l32 70c27-5 39-16 34-36Z" fill="#111827"/>
    <path d="M173 220c-34 13-53 43-48 79 8 59 64 105 131 105s123-46 131-105c5-36-14-66-48-79-15 25-46 41-83 41s-68-16-83-41Z" fill="#e5e7eb"/>
    <path d="M166 284c23 23 55 35 90 35s67-12 90-35" fill="none" stroke="#111827" stroke-width="17" stroke-linecap="round"/>
    <path d="M256 209c34 0 55 18 48 41-6 20-27 33-48 33s-42-13-48-33c-7-23 14-41 48-41Z" fill="#0f172a"/>
    <path d="M232 258c9 12 39 12 48 0" fill="none" stroke="#f8fafc" stroke-width="10" stroke-linecap="round"/>
    <path d="M209 222c-17-17-39-17-55-2" stroke="#111827" stroke-width="14" stroke-linecap="round"/>
    <path d="M303 222c17-17 39-17 55-2" stroke="#111827" stroke-width="14" stroke-linecap="round"/>
    <circle cx="190" cy="244" r="12" fill="#d4ff00"/>
    <circle cx="322" cy="244" r="12" fill="#d4ff00"/>
    <path d="M201 334c22 20 88 20 110 0" fill="none" stroke="#111827" stroke-width="18" stroke-linecap="round"/>
    <path d="M197 319l19 35 20-37m40 0 20 37 19-35" fill="#f8fafc" stroke="#111827" stroke-width="10" stroke-linejoin="round"/>
    <path d="M170 313c-18-7-31-18-39-33m211 33c18-7 31-18 39-33" fill="none" stroke="#94a3b8" stroke-width="11" stroke-linecap="round"/>
    <path d="M206 164c13 20 34 31 50 31s37-11 50-31" fill="none" stroke="#94a3b8" stroke-width="12" stroke-linecap="round"/>
  </g>
  <path d="M117 405c72 39 203 39 278 0" fill="none" stroke="#d4ff00" stroke-width="12" stroke-linecap="round" opacity="0.35"/>
</svg>
